<?xml version="1.0" standalone="no"?>
<!DOCTYPE svg PUBLIC "-//W3C//DTD SVG 20010904//EN"
 "http://www.w3.org/TR/2001/REC-SVG-20010904/DTD/svg10.dtd">
<svg version="1.0" xmlns="http://www.w3.org/2000/svg"
 width="341.000000pt" height="341.000000pt" viewBox="0 0 341.000000 341.000000"
 preserveAspectRatio="xMidYMid meet">
<metadata>
Created by potrace 1.14, written by Peter Selinger 2001-2017
</metadata>
<g transform="translate(0.000000,341.000000) scale(0.100000,-0.100000)"
fill="#000000" stroke="none">
<path d="M24 2716 c-18 -13 -19 -29 -20 -227 -1 -117 1 -221 4 -231 3 -13 160
-97 514 -273 279 -140 517 -255 528 -255 22 0 395 184 422 208 23 20 23 74 1
94 -31 27 -1383 698 -1407 698 -12 0 -31 -6 -42 -14z"/>
<path d="M2297 2219 c-1073 -537 -1048 -523 -1033 -583 5 -22 40 -42 217 -131
167 -83 215 -104 236 -99 58 15 1664 827 1677 848 10 15 13 75 12 228 -1 187
-3 208 -20 227 -11 12 -31 21 -45 20 -14 0 -484 -229 -1044 -510z"/>
<path d="M26 2057 l-23 -24 0 -661 c0 -643 1 -662 20 -679 17 -16 43 -18 244
-18 222 0 225 1 243 23 18 22 19 53 19 575 0 304 -2 560 -5 570 -6 18 -430
237 -460 237 -8 0 -25 -10 -38 -23z"/>
<path d="M3115 1974 c-115 -58 -216 -113 -222 -122 -10 -12 -13 -144 -13 -578
l0 -563 23 -18 c22 -17 45 -18 245 -18 198 0 224 2 239 18 17 16 18 62 18 679
0 626 -1 663 -18 685 -10 13 -28 23 -40 22 -12 0 -116 -47 -232 -105z"/>
<path d="M679 1731 c-23 -18 -23 -22 -25 -227 -1 -157 2 -214 12 -230 8 -14
207 -119 546 -288 293 -146 540 -266 548 -268 26 -4 57 12 67 35 11 26 11 426
-1 445 -10 17 -1081 552 -1105 552 -10 0 -29 -8 -42 -19z"/>
<path d="M2137 1484 c-319 -160 -325 -145 152 -384 198 -99 373 -182 389 -185
36 -6 72 25 73 63 0 15 1 111 1 214 0 144 -3 192 -13 204 -15 18 -364 194
-383 193 -6 0 -105 -47 -219 -105z"/>
</g>
</svg>
